# xmcd
#
# Track frame offsets: 
#        150
#        15123
#        30431
#        48076
#        65133
#        79462
#        95202
#        110455
#        123640
#        140735
#        157251
#
# Disc length: 2333 seconds
#
# Revision: 0
# Processed by: cddbd v1.5.1PL2 Copyright (c) Steve Scherf et al.
# Submitted via: ExactAudioCopy v0.95b3
#
DISCID=98091b0b
DTITLE=Granger Smith - Memory Rd.
DYEAR=1900
DGENRE=Country
TTITLE0=Jailbreak
TTITLE1=Run Away
TTITLE2=Dream On
TTITLE3=Walking Shoes
TTITLE4=Let 'Em Go
TTITLE5=While She's Sleeping
TTITLE6=She Even Made Leaving Look Good
TTITLE7=Why You Want To Go To Vegas
TTITLE8=There She Goes Again
TTITLE9=Memory Rd.
TTITLE10=She Was September
EXTD=
EXTT0=
EXTT1=
EXTT2=
EXTT3=
EXTT4=
EXTT5=
EXTT6=
EXTT7=
EXTT8=
EXTT9=
EXTT10=
PLAYORDER=
